<?xml version="1.0" encoding="utf-8"?>
<!DOCTYPE svg PUBLIC "-//W3C//DTD SVG 1.1//EN" "http://www.w3.org/Graphics/SVG/1.1/DTD/svg11.dtd">
<svg version="1.1" xmlns="http://www.w3.org/2000/svg" width="256" height="256" viewBox="0 0 256 256">
  <path fill="#2A2A2A" d="M57.8 75C58.8 37.8 88 6 124 4c40-2 73 25.6 76.5 64 2 20-5 37.5-14.8 54.4-10.4 18.2-21.6 36-31 54.7-11 22-16.7 45.7-19 70-.2 3.7-1 7.2-5.6 7.5-4.2.3-6-2.3-6.4-6-3.3-43-20.8-80.5-43.8-116-6.7-10.5-12.3-22-17-33.4-2.8-7.3-3.4-16-5-24zm72 30.3c17.2 0 30.6-13 30.5-29.6 0-16.5-13-30.8-28-31-19.6 0-32.6 12-32.7 30 0 18 12.4 30.5 30.2 30.6z"/>
</svg>